<svg xmlns="http://www.w3.org/2000/svg" width="1448" height="724" viewBox="0 0 1448 724">
<g>
<path d="M 1207.39 369.42 C1206.84,370.85 1196.11,371.00 1096.06,371.00 C1035.16,371.00 985.03,370.70 984.67,370.33 C984.30,369.97 984.00,344.77 984.00,314.33 L 984.00 259.00 L 1039.00 259.00 L 1039.00 202.03 L 1011.75 201.77 L 984.50 201.50 L 984.23 174.23 L 983.97 146.97 L 1011.73 147.23 L 1039.50 147.50 L 1039.77 174.75 L 1040.03 202.00 L 1152.03 202.00 L 1151.77 230.25 L 1151.50 258.50 L 1095.73 258.76 L 1039.97 259.02 L 1040.23 286.26 L 1040.50 313.50 L 1208.00 314.01 L 1208.00 340.92 C1208.00,355.73 1207.73,368.55 1207.39,369.42 ZM 437.50 535.56 C428.70,539.25 420.15,542.44 418.50,542.65 C416.15,542.95 407.90,539.14 380.61,525.13 C361.41,515.29 345.38,506.62 344.97,505.87 C343.58,503.30 329.00,454.92 329.00,452.87 C329.00,451.75 333.89,441.53 339.86,430.16 C345.83,418.80 352.89,405.23 355.55,400.00 C364.79,381.83 361.24,384.38 391.04,374.51 L 417.16 365.85 L 450.38 382.29 L 483.61 398.72 L 486.74 406.11 C488.47,410.17 493.78,423.04 498.55,434.70 L 507.23 455.90 L 505.25 459.20 C504.16,461.01 501.58,465.65 499.51,469.50 C497.44,473.35 493.17,481.23 490.02,487.00 C486.88,492.77 481.50,502.79 478.08,509.26 C471.37,521.94 471.19,522.11 459.61,526.53 C456.25,527.81 446.30,531.88 437.50,535.56 ZM 920.08 589.00 L 919.50 606.50 L 879.50 606.76 L 839.50 607.02 L 799.00 566.48 L 799.00 490.89 L 813.25 475.81 C821.09,467.51 829.32,458.76 831.54,456.36 L 835.58 452.00 L 916.57 452.00 L 936.28 471.81 L 956.00 491.61 L 956.00 506.48 L 938.26 524.24 L 920.52 542.00 L 869.37 542.00 C823.64,542.00 818.15,542.17 817.61,543.58 C817.27,544.45 817.00,549.13 817.00,553.97 C817.00,560.92 817.37,563.21 818.75,564.81 C819.71,565.93 826.57,571.83 833.98,577.92 L 847.46 589.00 ZM 377.00 90.00 L 377.00 147.00 L 153.00 147.00 L 153.00 119.70 C153.00,99.80 153.33,92.07 154.20,91.20 C155.12,90.28 181.36,90.00 266.20,90.00 ZM 321.00 343.16 L 320.50 370.50 L 209.22 370.75 C120.03,370.96 97.84,370.76 97.45,369.74 C97.19,369.04 97.09,356.33 97.23,341.49 L 97.50 314.50 L 208.39 314.25 C274.64,314.09 319.73,314.36 320.39,314.91 C321.18,315.56 321.35,323.83 321.00,343.16 ZM 1263.77 118.75 L 1264.03 147.00 L 1040.97 147.00 L 1041.23 118.75 L 1041.50 90.50 L 1263.50 90.50 ZM 394.50 511.42 C406.05,516.66 416.02,520.95 416.66,520.97 C417.70,521.00 423.71,518.77 448.47,509.20 L 455.45 506.50 L 468.18 483.50 C475.18,470.85 481.44,459.27 482.07,457.76 C483.30,454.88 481.18,448.86 469.50,422.01 L 465.38 412.53 L 450.94 405.81 C443.00,402.12 431.98,397.02 426.45,394.47 L 416.39 389.85 L 395.60 397.11 L 374.81 404.36 L 350.69 452.67 L 356.86 473.08 C360.26,484.31 363.47,494.50 363.99,495.73 C364.51,496.96 366.87,498.85 369.22,499.93 C371.57,501.02 382.95,506.19 394.50,511.42 ZM 321.00 232.06 L 321.00 260.00 L 237.47 260.00 C171.07,260.00 153.84,259.74 153.45,258.74 C153.19,258.04 153.09,245.21 153.23,230.21 L 153.50 202.95 L 236.36 202.99 C281.94,203.01 319.63,203.27 320.11,203.57 C320.60,203.87 321.00,216.69 321.00,232.06 ZM 536.00 171.58 C536.00,233.77 535.74,249.95 534.75,249.77 C534.06,249.65 521.12,249.31 506.00,249.02 L 478.50 248.50 L 478.24 170.61 C478.06,113.90 478.29,92.35 479.12,91.36 C480.02,90.27 485.74,90.00 507.52,90.00 C531.46,90.00 534.86,90.19 535.39,91.58 C535.73,92.45 536.00,128.45 536.00,171.58 ZM 875.76 169.72 L 876.01 248.94 L 847.50 249.22 L 818.99 249.50 L 819.50 90.50 L 875.50 90.50 ZM 1273.73 674.75 C1272.25,676.65 1217.15,676.55 1216.42,674.64 C1216.13,673.90 1216.03,670.41 1216.20,666.89 L 1216.50 660.50 L 1237.29 660.23 L 1258.08 659.96 L 1262.43 650.73 C1264.83,645.65 1271.58,631.60 1277.45,619.51 C1286.80,600.21 1287.97,597.22 1287.01,595.12 C1286.41,593.80 1279.80,581.42 1272.33,567.61 C1226.58,483.07 1217.00,465.11 1217.02,463.87 C1217.04,462.24 1229.24,453.00 1231.38,453.00 C1232.30,453.00 1236.15,459.52 1241.55,470.25 C1274.01,534.76 1294.92,575.00 1295.98,575.00 C1296.46,575.00 1301.44,566.11 1307.06,555.25 C1312.67,544.39 1319.85,530.55 1323.01,524.50 C1326.16,518.45 1331.66,507.88 1335.23,501.00 C1338.79,494.12 1345.86,480.51 1350.93,470.75 C1356.54,459.95 1360.73,453.00 1361.63,453.00 C1363.79,453.00 1379.00,465.07 1379.00,466.78 C1379.00,468.27 1373.97,478.48 1352.99,519.50 C1341.88,541.24 1334.20,556.35 1292.23,639.00 C1282.59,657.97 1274.27,674.06 1273.73,674.75 ZM 676.00 593.00 L 676.00 615.00 L 568.50 614.95 L 563.98 610.73 C561.50,608.40 551.03,598.88 540.73,589.56 L 522.00 572.62 L 522.00 490.16 L 531.25 481.70 C536.34,477.05 545.87,468.47 552.43,462.62 L 564.35 452.00 L 676.00 452.00 L 676.00 475.00 L 568.35 475.00 L 555.17 488.40 L 542.00 501.80 L 542.00 560.72 L 549.25 568.65 C553.24,573.01 559.81,580.27 563.86,584.79 L 571.21 593.00 ZM 1148.74 591.76 C1136.50,603.99 1125.90,614.00 1125.19,614.00 C1124.49,614.00 1114.48,604.70 1102.95,593.34 L 1082.00 572.67 L 1082.00 470.00 L 1047.62 470.00 C1019.29,470.00 1013.04,469.75 1012.08,468.59 C1011.35,467.72 1011.02,464.39 1011.20,459.84 L 1011.50 452.50 L 1046.50 452.00 L 1081.49 451.50 L 1082.31 445.50 C1082.77,442.20 1082.94,428.63 1082.70,415.35 C1082.45,402.07 1082.57,390.69 1082.96,390.06 C1083.43,389.31 1086.55,389.01 1092.09,389.21 L 1100.50 389.50 L 1101.50 451.50 L 1164.50 452.50 L 1164.80 459.84 C1164.98,464.39 1164.65,467.72 1163.92,468.59 C1162.97,469.75 1157.27,470.00 1132.38,470.00 L 1102.00 470.00 L 1102.00 563.54 L 1111.27 572.77 C1116.37,577.85 1120.97,582.00 1121.51,582.00 C1122.04,582.00 1129.57,574.92 1138.23,566.27 L 1153.99 550.53 L 1162.49 558.99 C1167.17,563.65 1171.00,567.92 1171.00,568.49 C1171.00,569.05 1160.98,579.53 1148.74,591.76 ZM 705.76 249.25 L 706.02 305.00 L 648.98 305.00 L 649.24 249.25 L 649.50 193.50 L 705.50 193.50 ZM 819.67 520.33 C820.03,520.70 840.17,520.99 864.42,520.98 L 908.50 520.96 L 921.25 509.94 C928.87,503.36 934.00,498.19 934.00,497.11 C934.00,496.07 929.04,490.70 922.50,484.65 L 910.99 474.00 L 846.83 474.00 L 840.16 480.21 C836.50,483.63 830.24,489.58 826.25,493.44 L 819.00 500.45 L 819.00 510.06 C819.00,515.34 819.30,519.97 819.67,520.33 ZM 749.00 452.00 L 749.00 607.00 L 735.67 607.00 C728.33,607.00 722.03,606.70 721.67,606.33 C721.30,605.97 721.00,571.09 721.00,528.83 L 721.00 452.00 ZM 749.00 388.94 L 749.00 435.00 L 735.47 435.00 C725.43,435.00 721.81,434.67 721.45,433.73 C721.18,433.02 721.08,422.79 721.23,410.98 L 721.50 389.50 L 735.25 389.22 Z" fill="rgb(32,30,31)"/>
<path d="M 648.78 335.50 L 648.50 361.50 L 620.93 361.77 C605.77,361.91 593.06,361.72 592.68,361.35 C592.31,360.97 592.00,348.37 592.00,333.33 L 592.00 306.00 L 564.70 306.00 C544.80,306.00 537.07,305.67 536.20,304.80 C535.33,303.93 535.00,296.31 535.00,276.80 C535.00,262.06 534.89,249.91 534.75,249.79 C534.61,249.67 521.90,249.34 506.50,249.04 L 478.50 248.50 L 506.00 249.02 C521.12,249.31 534.06,249.65 534.75,249.77 C535.74,249.95 536.00,233.87 536.00,172.14 L 536.50 249.14 L 561.00 249.04 C574.47,248.99 586.96,249.24 588.75,249.60 L 592.00 250.25 L 592.00 305.00 L 647.96 305.00 L 648.51 307.25 C648.81,308.49 648.94,321.20 648.78,335.50 ZM 1040.00 198.71 L 1039.77 174.75 L 1039.50 147.50 L 1011.73 147.23 L 984.24 146.97 L 984.24 146.27 L 983.98 91.04 L 986.24 90.50 C987.48,90.21 1050.38,90.08 1126.00,90.23 L 1263.50 90.50 L 1041.50 90.50 L 1041.23 118.75 L 1040.97 147.00 L 1040.00 147.00 ZM 235.45 202.99 L 153.50 202.95 L 153.23 230.21 C153.16,238.22 153.15,245.62 153.20,250.87 C153.08,245.80 153.00,238.88 153.00,231.35 L 153.00 204.03 L 125.25 203.77 L 97.50 203.50 L 97.50 147.50 L 125.00 146.94 C140.12,146.64 152.61,146.30 152.75,146.19 C152.89,146.09 153.00,134.21 153.00,119.70 L 153.00 147.00 L 153.97 147.00 L 154.23 174.75 L 154.50 202.50 ZM 321.01 318.88 C320.89,316.41 320.68,315.15 320.39,314.91 C319.75,314.38 277.21,314.11 214.08,314.23 L 320.00 313.99 L 320.00 288.58 C320.00,274.60 320.27,262.45 320.61,261.58 C321.14,260.19 324.60,260.00 349.12,260.00 L 377.03 260.00 L 376.77 288.25 L 376.50 316.50 L 348.77 316.77 L 321.03 317.03 ZM 817.86 304.67 C816.99,305.71 811.23,306.00 790.95,306.00 C768.82,306.00 764.92,305.78 763.57,304.43 C762.23,303.08 762.00,299.22 762.00,277.50 C762.00,255.48 762.21,251.93 763.62,250.53 C765.04,249.10 768.44,248.94 792.11,249.20 L 818.99 249.50 L 818.99 249.50 L 847.50 249.22 L 876.01 248.94 L 876.01 248.97 L 847.76 249.23 L 819.50 249.50 L 819.23 276.42 C819.06,294.23 818.59,303.79 817.86,304.67 ZM 1207.39 369.42 C1207.73,368.55 1208.00,355.73 1208.00,340.92 L 1208.00 314.01 L 1040.50 313.50 L 1264.00 314.01 L 1264.00 341.90 C1264.00,366.41 1263.81,369.86 1262.42,370.39 C1261.38,370.79 1198.37,370.98 1132.64,370.99 C1198.88,370.93 1206.92,370.65 1207.39,369.42 ZM 761.50 360.75 C761.17,361.71 754.76,362.00 734.07,362.00 C709.36,362.00 706.99,361.85 706.17,360.25 C705.68,359.29 705.38,346.86 705.51,332.64 C705.70,311.95 706.02,306.60 707.12,305.90 C707.88,305.42 720.65,305.02 735.50,305.01 L 762.50 305.00 L 762.22 332.25 C762.07,347.24 761.75,360.06 761.50,360.75 ZM 535.28 91.37 C534.54,90.32 531.18,90.06 515.10,90.01 C526.59,90.04 535.13,90.14 535.23,90.25 C535.25,90.26 535.26,90.65 535.28,91.37 ZM 153.56 258.84 C154.25,259.25 158.28,259.53 168.27,259.70 C159.19,259.60 153.80,259.47 153.67,259.33 C153.63,259.30 153.59,259.13 153.56,258.84 ZM 320.50 203.50 L 320.53 207.21 C320.41,204.98 320.27,203.66 320.11,203.57 C320.07,203.54 319.74,203.52 319.14,203.49 ZM 321.00 256.69 L 321.03 260.00 L 321.00 260.00 Z" fill="rgb(155,73,64)"/>
<path d="M 0.00 362.00 L 0.00 0.00 L 724.00 0.00 L 1448.00 0.00 L 1448.00 362.00 L 1448.00 724.00 L 724.00 724.00 L 0.00 724.00 L 0.00 362.00 ZM 1273.73 674.75 C1274.27,674.06 1282.59,657.97 1292.23,639.00 C1334.20,556.35 1341.88,541.24 1352.99,519.50 C1373.97,478.48 1379.00,468.27 1379.00,466.78 C1379.00,465.07 1363.79,453.00 1361.63,453.00 C1360.73,453.00 1356.54,459.95 1350.93,470.75 C1345.86,480.51 1338.79,494.12 1335.23,501.00 C1331.66,507.88 1326.16,518.45 1323.01,524.50 C1319.85,530.55 1312.67,544.39 1307.06,555.25 C1301.44,566.11 1296.46,575.00 1295.98,575.00 C1294.92,575.00 1274.01,534.76 1241.55,470.25 C1236.15,459.52 1232.30,453.00 1231.38,453.00 C1229.24,453.00 1217.04,462.24 1217.02,463.87 C1217.00,465.11 1226.58,483.07 1272.33,567.61 C1279.80,581.42 1286.41,593.80 1287.01,595.12 C1287.97,597.22 1286.80,600.21 1277.45,619.51 C1271.58,631.60 1264.83,645.65 1262.43,650.73 L 1258.08 659.96 L 1237.29 660.23 L 1216.50 660.50 L 1216.20 666.89 C1216.03,670.41 1216.13,673.90 1216.42,674.64 C1217.15,676.55 1272.25,676.65 1273.73,674.75 ZM 676.00 604.00 L 676.00 593.00 L 623.61 593.00 L 571.21 593.00 L 563.86 584.79 C559.81,580.27 553.24,573.01 549.25,568.65 L 542.00 560.72 L 542.00 531.26 L 542.00 501.80 L 555.17 488.40 L 568.35 475.00 L 622.17 475.00 L 676.00 475.00 L 676.00 463.50 L 676.00 452.00 L 620.18 452.00 L 564.35 452.00 L 552.43 462.62 C545.87,468.47 536.34,477.05 531.25,481.70 L 522.00 490.16 L 522.00 531.39 L 522.00 572.62 L 540.73 589.56 C551.03,598.88 561.50,608.40 563.98,610.73 L 568.50 614.95 L 622.25 614.98 L 676.00 615.00 L 676.00 604.00 ZM 1148.74 591.76 C1160.98,579.53 1171.00,569.05 1171.00,568.49 C1171.00,567.92 1167.17,563.65 1162.49,558.99 L 1153.99 550.53 L 1138.23 566.27 C1129.57,574.92 1122.04,582.00 1121.51,582.00 C1120.97,582.00 1116.37,577.85 1111.27,572.77 L 1102.00 563.54 L 1102.00 516.77 L 1102.00 470.00 L 1132.38 470.00 C1157.27,470.00 1162.97,469.75 1163.92,468.59 C1164.65,467.72 1164.98,464.39 1164.80,459.84 L 1164.50 452.50 L 1133.00 452.00 L 1101.50 451.50 L 1101.00 420.50 L 1100.50 389.50 L 1092.09 389.21 C1086.55,389.01 1083.43,389.31 1082.96,390.06 C1082.57,390.69 1082.45,402.07 1082.70,415.35 C1082.94,428.63 1082.77,442.20 1082.31,445.50 L 1081.49 451.50 L 1046.50 452.00 L 1011.50 452.50 L 1011.20 459.84 C1011.02,464.39 1011.35,467.72 1012.08,468.59 C1013.04,469.75 1019.29,470.00 1047.62,470.00 L 1082.00 470.00 L 1082.00 521.34 L 1082.00 572.67 L 1102.95 593.34 C1114.48,604.70 1124.49,614.00 1125.19,614.00 C1125.90,614.00 1136.50,603.99 1148.74,591.76 ZM 749.00 529.50 L 749.00 452.00 L 735.00 452.00 L 721.00 452.00 L 721.00 528.83 C721.00,571.09 721.30,605.97 721.67,606.33 C722.03,606.70 728.33,607.00 735.67,607.00 L 749.00 607.00 L 749.00 529.50 ZM 919.79 597.75 L 920.08 589.00 L 883.77 589.00 L 847.46 589.00 L 833.98 577.92 C826.57,571.83 819.71,565.93 818.75,564.81 C817.37,563.21 817.00,560.92 817.00,553.97 C817.00,549.13 817.27,544.45 817.61,543.58 C818.15,542.17 823.64,542.00 869.37,542.00 L 920.52 542.00 L 938.26 524.24 L 956.00 506.48 L 956.00 499.05 L 956.00 491.61 L 936.28 471.81 L 916.57 452.00 L 876.07 452.00 L 835.58 452.00 L 831.54 456.36 C829.32,458.76 821.09,467.51 813.25,475.81 L 799.00 490.89 L 799.00 528.69 L 799.00 566.48 L 819.25 586.75 L 839.50 607.02 L 879.50 606.76 L 919.50 606.50 L 919.79 597.75 ZM 437.50 535.56 C446.30,531.88 456.25,527.81 459.61,526.53 C471.19,522.11 471.37,521.94 478.08,509.26 C481.50,502.79 486.88,492.77 490.02,487.00 C493.17,481.23 497.44,473.35 499.51,469.50 C501.58,465.65 504.16,461.01 505.25,459.20 L 507.23 455.90 L 498.55 434.70 C493.78,423.04 488.47,410.17 486.74,406.11 L 483.61 398.72 L 450.38 382.29 L 417.16 365.85 L 391.04 374.51 C361.24,384.38 364.79,381.83 355.55,400.00 C352.89,405.23 345.83,418.80 339.86,430.16 C333.89,441.53 329.00,451.75 329.00,452.87 C329.00,454.92 343.58,503.30 344.97,505.87 C345.38,506.62 361.41,515.29 380.61,525.13 C407.90,539.14 416.15,542.95 418.50,542.65 C420.15,542.44 428.70,539.25 437.50,535.56 ZM 749.00 411.97 L 749.00 388.94 L 735.25 389.22 L 721.50 389.50 L 721.23 410.98 C721.08,422.79 721.18,433.02 721.45,433.73 C721.81,434.67 725.43,435.00 735.47,435.00 L 749.00 435.00 L 749.00 411.97 ZM 320.77 343.77 L 321.03 317.03 L 348.77 316.77 L 376.50 316.50 L 376.77 288.25 L 377.03 260.00 L 349.12 260.00 C324.60,260.00 321.14,260.19 320.61,261.58 C320.27,262.45 320.00,274.60 320.00,288.58 L 320.00 313.99 L 208.75 314.25 L 97.50 314.50 L 97.23 341.49 C97.09,356.33 97.19,369.04 97.45,369.74 C97.84,370.76 120.03,370.96 209.22,370.75 L 320.50 370.50 L 320.77 343.77 ZM 1262.42 370.39 C1263.81,369.86 1264.00,366.41 1264.00,341.90 L 1264.00 314.01 L 1152.25 313.75 L 1040.50 313.50 L 1040.23 286.26 L 1039.97 259.02 L 1095.73 258.76 L 1151.50 258.50 L 1151.77 230.25 L 1152.03 202.00 L 1096.02 202.00 L 1040.00 202.00 L 1040.00 174.50 L 1040.00 147.00 L 1152.02 147.00 L 1264.03 147.00 L 1263.77 118.75 L 1263.50 90.50 L 1126.00 90.23 C1050.38,90.08 987.48,90.21 986.24,90.50 L 983.98 91.04 L 984.24 146.27 L 984.50 201.50 L 1011.75 201.77 L 1039.00 202.03 L 1039.00 230.52 L 1039.00 259.00 L 1011.50 259.00 L 984.00 259.00 L 984.00 314.33 C984.00,344.77 984.30,369.97 984.67,370.33 C985.50,371.17 1260.25,371.23 1262.42,370.39 ZM 648.78 335.50 C648.94,321.20 648.81,308.49 648.51,307.25 L 647.96 305.00 L 619.98 305.00 L 592.00 305.00 L 592.00 277.62 L 592.00 250.25 L 588.75 249.60 C586.96,249.24 574.47,248.99 561.00,249.04 L 536.50 249.14 L 535.98 169.82 C535.70,126.19 535.36,90.39 535.23,90.25 C535.11,90.11 522.68,90.00 507.62,90.00 C485.76,90.00 480.02,90.27 479.12,91.36 C478.29,92.35 478.06,113.90 478.24,170.61 L 478.50 248.50 L 506.50 249.04 C521.90,249.34 534.61,249.67 534.75,249.79 C534.89,249.91 535.00,262.06 535.00,276.80 C535.00,296.31 535.33,303.93 536.20,304.80 C537.07,305.67 544.80,306.00 564.70,306.00 L 592.00 306.00 L 592.00 333.33 C592.00,348.37 592.31,360.97 592.68,361.35 C593.06,361.72 605.77,361.91 620.93,361.77 L 648.50 361.50 L 648.78 335.50 ZM 761.50 360.75 C761.75,360.06 762.07,347.24 762.22,332.25 L 762.50 305.00 L 735.50 305.01 C720.65,305.02 707.88,305.42 707.12,305.90 C706.02,306.60 705.70,311.95 705.51,332.64 C705.38,346.86 705.68,359.29 706.17,360.25 C706.99,361.85 709.36,362.00 734.07,362.00 C754.76,362.00 761.17,361.71 761.50,360.75 ZM 817.86 304.67 C818.59,303.79 819.06,294.23 819.23,276.42 L 819.50 249.50 L 847.76 249.23 L 876.01 248.97 L 875.76 169.73 L 875.50 90.50 L 847.50 90.50 L 819.50 90.50 L 819.24 170.00 L 818.99 249.50 L 792.11 249.20 C768.44,248.94 765.04,249.10 763.62,250.53 C762.21,251.93 762.00,255.48 762.00,277.50 C762.00,299.22 762.23,303.08 763.57,304.43 C764.92,305.78 768.82,306.00 790.95,306.00 C811.23,306.00 816.99,305.71 817.86,304.67 ZM 705.76 249.25 L 705.50 193.50 L 677.50 193.50 L 649.50 193.50 L 649.24 249.25 L 648.98 305.00 L 677.50 305.00 L 706.02 305.00 L 705.76 249.25 ZM 320.77 231.75 L 320.50 203.50 L 237.50 203.00 L 154.50 202.50 L 154.23 174.75 L 153.97 147.00 L 265.48 147.00 L 377.00 147.00 L 377.00 118.50 L 377.00 90.00 L 266.20 90.00 C181.36,90.00 155.12,90.28 154.20,91.20 C153.33,92.07 153.00,99.69 153.00,119.20 C153.00,133.94 152.89,146.09 152.75,146.19 C152.61,146.30 140.12,146.64 125.00,146.94 L 97.50 147.50 L 97.50 175.50 L 97.50 203.50 L 125.25 203.77 L 153.00 204.03 L 153.00 231.35 C153.00,246.37 153.30,258.97 153.67,259.33 C154.03,259.70 191.84,260.00 237.68,260.00 L 321.03 260.00 L 320.77 231.75 ZM 819.67 520.33 C819.30,519.97 819.00,515.34 819.00,510.06 L 819.00 500.45 L 826.25 493.44 C830.24,489.58 836.50,483.63 840.16,480.21 L 846.83 474.00 L 878.91 474.00 L 910.99 474.00 L 922.50 484.65 C929.04,490.70 934.00,496.07 934.00,497.11 C934.00,498.19 928.87,503.36 921.25,509.94 L 908.50 520.96 L 864.42 520.98 C840.17,520.99 820.03,520.70 819.67,520.33 ZM 394.50 511.42 C382.95,506.19 371.57,501.02 369.22,499.93 C366.87,498.85 364.51,496.96 363.99,495.73 C363.47,494.50 360.26,484.31 356.86,473.08 L 350.69 452.67 L 362.75 428.51 L 374.81 404.36 L 395.60 397.11 L 416.39 389.85 L 426.45 394.47 C431.98,397.02 443.00,402.12 450.94,405.81 L 465.38 412.53 L 469.50 422.01 C481.18,448.86 483.30,454.88 482.07,457.76 C481.44,459.27 475.18,470.85 468.18,483.50 L 455.45 506.50 L 448.47 509.20 C423.71,518.77 417.70,521.00 416.66,520.97 C416.02,520.95 406.05,516.66 394.50,511.42 Z" fill="rgb(254,254,254)"/>
</g>
</svg>